HIERARCHY
ROOT Hips
{
  OFFSET 61.6491 93.7818 -163.716
  CHANNELS 6 Xposition Yposition Zposition Zrotation Xrotation Yrotation
  JOINT RightUpLeg
  {
    OFFSET -8.9458 -8.66707 0.101652
    CHANNELS 3 Zrotation Xrotation Yrotation
    JOINT RightLeg
    {
      OFFSET 0 -44.4227 1.3727
      CHANNELS 3 Zrotation Xrotation Yrotation
      JOINT RightFoot
      {
        OFFSET 0.253549 -42.0924 -1.46059
        CHANNELS 3 Zrotation Xrotation Yrotation
        JOINT RightToes
        {
          OFFSET 0.04 -4.41509 8.4991
          CHANNELS 3 Zrotation Xrotation Yrotation
          End Site
          {
            OFFSET -0.08 -0.137448 9.77979
          }
        }
      }
    }
  }
  JOINT Spine
  {
    OFFSET 0 11.8905 0
    CHANNELS 3 Zrotation Xrotation Yrotation
    JOINT Spine1
    {
      OFFSET 0 25.6574 0.127663
      CHANNELS 3 Zrotation Xrotation Yrotation
      JOINT HEad
      {
        OFFSET 0 8.73416 0.011341
        CHANNELS 3 Zrotation Xrotation Yrotation
        End Site
        {
          OFFSET -0.29 12.7742 2.51395
        }
      }
      JOINT LeftShoulder1
      {
        OFFSET 8.99 -0.362252 -0.22
        CHANNELS 3 Zrotation Xrotation Yrotation
        JOINT LeftArm
        {
          OFFSET 10.2827 -0.00338 0.322123
          CHANNELS 3 Zrotation Xrotation Yrotation
          JOINT LeftForeArm
          {
            OFFSET 32.7669 0.099144 -1.42434
            CHANNELS 3 Zrotation Xrotation Yrotation
            JOINT LeftHand
            {
              OFFSET 27.5643 0.085362 1.02216
              CHANNELS 3 Zrotation Xrotation Yrotation
              End Site
              {
                OFFSET 16.7443 -0.6 1.50291
              }
            }
          }
        }
      }
      JOINT RightShoulder
      {
        OFFSET -8.99 -0.362252 -0.22
        CHANNELS 3 Zrotation Xrotation Yrotation
        JOINT RightArm
        {
          OFFSET -10.2827 -0.00338 0.322123
          CHANNELS 3 Zrotation Xrotation Yrotation
          JOINT RightForeArm
          {
            OFFSET -32.8971 0.099144 -1.42434
            CHANNELS 3 Zrotation Xrotation Yrotation
            JOINT RightHand
            {
              OFFSET -27.4921 0.085362 1.02216
              CHANNELS 3 Zrotation Xrotation Yrotation
              End Site
              {
                OFFSET -16.6312 -0.6 1.50291
              }
            }
          }
        }
      }
    }
  }
  JOINT LeftUpLeg
  {
    OFFSET 8.9458 -8.66707 0.101652
    CHANNELS 3 Zrotation Xrotation Yrotation
    JOINT LeftLeg
    {
      OFFSET 0 -44.4227 1.3727
      CHANNELS 3 Zrotation Xrotation Yrotation
      JOINT LeftFoot
      {
        OFFSET -0.253549 -42.0924 -1.46059
        CHANNELS 3 Zrotation Xrotation Yrotation
        JOINT LeftToes
        {
          OFFSET -0.04 -4.41509 8.4991
          CHANNELS 3 Zrotation Xrotation Yrotation
          End Site
          {
            OFFSET 0.08 -0.047448 9.77979
          }
        }
      }
    }
  }
}
MOTION
Frames:	18
Frame Time:	0.0166667
-23.3984 82.956 -184.803 -5.92059 -18.2248 -31.7024 -13.352 -2.14178 8.65067 13.2671 61.4779 -24.6558 4.85475 7.44572 -0.711383 -25.9584 -24.3388 -7.2437 -1.30388 12.7503 -1.12346 -5.73767 25.5791 -0.761511 4.7136 -7.52855 25.1445 -1.59028e-015 -3.18055e-015 3.18055e-015 -68.76 -30.3529 -82.9694 -28.5536 -34.2428 -51.4307 -6.09412 12.1922 -33.5077 20.2281 5.66266 22.5555 93.8917 -37.4306 88.1159 58.7933 64.7789 69.5565 -15.4637 9.7154 -2.86968 25.2784 -1.7256 -8.80144 -4.99462 27.0161 -2.29181 -15.7664 6.849 1.94464 -10.2596 -31.1997 -7.48722 
-22.5682 82.2485 -184.655 -5.37733 -18.4533 -31.9937 -13.9588 -2.59233 8.92474 11.8388 62.5002 -23.7872 4.12225 5.19073 -0.549223 -24.266 -23.0484 -6.86158 -1.68779 13.0922 -0.279832 -6.73862 26.2118 1.13469 4.45847 -11.3805 23.3003 -3.18055e-015 -3.18055e-015 -0 -73.5632 -28.247 -87.2378 -32.3934 -30.9051 -53.3886 -8.66652 13.1987 -35.0835 18.2016 5.30645 23.0221 106.161 -36.1164 97.3854 71.3945 66.4352 56.017 -16.2712 9.02957 2.14109 25.6644 -2.14223 -6.75582 -7.00116 28.2072 -3.35182 -15.0948 4.75057 1.59567 -10.5596 -31.6243 -8.08337 
-21.7616 81.9994 -184.589 -4.90027 -18.2066 -32.6164 -14.3844 -3.23984 9.26672 8.72325 62.3881 -20.7194 4.62409 6.36463 -0.644799 -26.1167 -24.4662 -7.13368 -1.69503 13.4661 0.594895 -7.40595 26.9134 3.1759 3.47655 -15.6318 21.5216 1.59028e-015 3.18055e-015 -6.36111e-015 -80.3926 -28.2287 -89.593 -36.6385 -21.2573 -54.3376 -10.0492 13.8642 -36.8119 16.5078 5.01589 23.5043 114.901 -33.6455 103.466 80.8946 67.2434 46.2444 -16.4225 8.54796 5.59604 26.0333 -2.82536 -4.80272 -8.71788 29.2053 -3.51979 -14.6347 4.10218 1.46656 -10.8471 -31.7915 -9.01367 
-21.0084 82.2251 -184.527 -4.57823 -17.5287 -33.4211 -14.7787 -3.95504 9.51186 5.64701 61.2565 -16.5962 6.30694 8.75471 -0.96554 -29.0813 -26.6912 -7.47875 -1.4672 13.7864 1.47393 -7.75747 27.5101 5.213 2.04816 -19.3529 19.6941 -1.59028e-015 -3.18055e-015 3.18055e-015 -90.0622 -30.501 -91.0577 -40.4609 -4.96382 -53.4515 -7.91619 13.1937 -38.1626 15.3645 4.83147 23.9313 119.432 -31.679 105.892 85.6774 67.7491 41.7774 -16.3206 8.27449 7.66184 26.2585 -3.43699 -3.98608 -10.1068 29.4199 -2.28704 -14.2318 4.33301 1.45185 -10.9626 -31.6751 -9.68181 
-20.3135 82.8745 -184.44 -4.50287 -16.5131 -34.2904 -15.2964 -4.66383 9.61384 4.41065 59.4815 -12.6797 8.61962 10.0642 -1.38609 -30.4599 -27.7489 -7.25681 -1.16157 14.0071 2.3193 -7.74236 27.913 7.04666 0.578441 -21.9452 17.9421 0 0 -0 -102.709 -35.1028 -92.9211 -45.2841 15.9345 -51.347 -2.30158 11.0519 -38.1014 14.9854 4.77559 24.1112 119.786 -30.9705 104.984 85.3198 68.1072 42.6137 -16.2477 8.12959 8.77979 26.2806 -3.77721 -4.67507 -11.0572 28.6511 0.253528 -13.6491 4.88294 1.45208 -10.7857 -31.2688 -9.61424 
-19.6724 83.8183 -184.344 -4.70876 -15.2884 -35.1076 -15.9874 -5.31138 9.62254 5.6461 57.4569 -9.7904 10.6898 9.41988 -1.65143 -29.2249 -26.9041 -6.39567 -0.830621 14.138 3.0405 -7.29224 28.1558 8.44732 -0.51102 -23.2711 16.6137 -3.18055e-015 0 -0 -107.723 -40.5165 -90.0538 -47.7743 31.6785 -55.2106 3.94048 8.76173 -35.0456 15.6205 4.88002 23.8701 115.995 -31.2656 101.166 80.2954 67.9274 47.8349 -16.2045 8.05296 9.37828 26.1113 -3.86449 -6.33644 -11.2399 27.2338 3.27174 -12.8977 5.47227 1.43147 -10.3228 -30.5748 -8.78586 
-19.0846 84.883 -184.288 -5.15874 -13.9928 -35.7802 -16.7726 -5.83157 9.48348 8.54687 55.3731 -8.04687 12.101 7.53754 -1.67744 -26.4858 -24.8542 -5.43142 -0.458325 14.2304 3.54181 -6.39172 28.355 9.24469 -0.958762 -23.579 16.0542 3.53113e-031 -3.18055e-015 6.36111e-015 -102.033 -44.9923 -79.2606 -43.2203 39.841 -67.4323 8.79987 7.43946 -29.8515 17.2417 5.12569 23.2092 108.423 -31.7664 94.9962 72.1626 66.6915 55.7131 -16.0132 8.02835 9.73264 25.8459 -3.85698 -8.0273 -10.5138 25.7571 5.89162 -12.1599 6.1188 1.41057 -9.71367 -29.652 -7.61227 
-18.5495 85.9135 -184.323 -5.78688 -12.7527 -36.2496 -17.5016 -6.16169 9.03803 11.8221 53.3382 -7.08557 12.9997 5.54877 -1.58604 -23.7824 -22.7258 -4.716 -0.0276977 14.3466 3.77765 -5.08993 28.6361 9.39203 -0.781563 -23.2884 16.403 -3.18055e-015 -3.18055e-015 -3.18055e-015 -93.5474 -47.7629 -65.1792 -36.0727 43.9313 -80.1866 11.6701 7.04196 -25.1433 19.3537 5.41009 22.3097 98.3018 -31.6464 87.3867 63.2037 64.3143 64.1065 -15.5626 8.06234 9.90055 25.6458 -3.95056 -9.11542 -9.23065 24.6846 7.81981 -11.5569 6.92246 1.4133 -9.11354 -28.5984 -6.58085 
-18.062 86.8091 -184.486 -6.53123 -11.6801 -36.454 -18.0644 -6.23958 8.17672 14.6115 51.4948 -6.57188 13.6621 4.14768 -1.50595 -21.855 -21.1557 -4.22654 0.441693 14.537 3.76223 -3.46532 29.0872 8.94504 -0.207762 -22.7676 17.5296 0 3.18055e-015 -0 -84.3419 -47.6474 -50.1993 -29.6403 44.3235 -89.4708 12.7623 7.06567 -22.3408 21.2209 5.60868 21.4056 87.7042 -30.4966 79.7335 55.2895 61.2696 71.3283 -14.9282 8.14873 9.84672 25.608 -4.35456 -9.53205 -7.9359 24.3407 9.27294 -11.1158 7.79026 1.43529 -8.53703 -27.3613 -5.86723 
-17.618 87.5149 -184.797 -7.35215 -10.8938 -36.3234 -18.4159 -5.96168 6.93422 16.5577 49.9207 -6.40993 14.256 3.7003 -1.51534 -20.8434 -20.3125 -3.88482 0.887859 14.8411 3.55113 -1.59384 29.7642 8.00842 0.490808 -22.2268 19.0928 -1.59028e-015 0 3.18055e-015 -77.641 -45.2014 -38.0457 -26.8172 42.8311 -92.2288 12.7543 7.10416 -22.0093 22.2922 5.65323 20.6624 78.6766 -28.5813 73.5684 49.2912 58.246 76.4543 -14.2893 8.24904 9.67481 25.6629 -5.23007 -9.51905 -6.91806 25.0111 10.5068 -10.8731 8.4544 1.46103 -7.87201 -25.7184 -5.30752 
-17.2159 87.9969 -185.263 -8.23887 -10.5339 -35.8109 -18.532 -5.15641 5.56052 17.5894 48.5308 -6.62748 14.8409 4.36949 -1.65613 -20.6148 -20.1171 -3.67036 1.2534 15.2922 3.20764 0.459509 30.7071 6.68612 1.11053 -21.7335 20.6883 1.59028e-015 0 -0 -74.4068 -42.0951 -30.4145 -28.5642 40.6929 -87.9788 11.9921 7.06943 -24.0681 22.4297 5.55546 20.1612 72.3352 -26.5868 69.9352 45.3473 55.7506 79.0465 -13.8343 8.30213 9.70038 25.6436 -6.58878 -9.35981 -6.15705 26.824 11.5602 -10.8974 8.80311 1.49532 -7.06255 -23.5948 -4.68256 
-16.8552 88.2318 -185.858 -9.19212 -10.7206 -34.908 -18.383 -3.60367 4.5245 17.8448 47.0499 -7.2172 15.4008 5.89542 -1.9102 -20.7569 -20.2344 -3.5647 1.59591 15.8976 2.75133 2.65294 31.9096 5.04103 1.57784 -21.2486 22.0047 1.59028e-015 9.54166e-015 -0 -73.6238 -39.4327 -26.9231 -34.0603 37.5092 -78.3998 10.3284 7.1562 -27.8049 21.8385 5.3785 19.9347 68.8985 -25.0773 69.1858 43.4442 53.9966 78.7744 -13.701 8.24605 10.3349 25.4312 -8.2825 -9.26784 -5.5178 29.5975 12.2864 -11.2369 9.1736 1.57819 -6.26705 -21.4122 -4.04563 
-16.551 88.1925 -186.526 -10.1491 -11.4936 -33.6829 -17.9803 -1.20668 4.36759 17.664 45.2284 -8.16847 15.7768 7.4259 -2.15533 -20.6793 -20.1686 -3.53471 1.99861 16.6091 2.18289 4.90905 33.2647 3.12232 1.99018 -20.6617 22.897 -1.59028e-015 3.18055e-015 6.36111e-015 -74.0577 -37.3769 -26.5167 -40.8178 32.3167 -66.8591 7.64799 7.65621 -31.9091 20.8981 5.20345 19.9974 68.198 -24.173 71.1099 43.6427 52.9496 75.3558 -13.8479 8.04029 11.9461 24.9836 -10.1253 -9.30683 -4.82588 32.9485 12.4271 -11.9423 10.2625 1.78865 -5.81735 -20.0724 -3.83947 
-16.3337 87.8766 -187.181 -10.9895 -12.7123 -32.316 -17.3637 1.85177 5.38757 17.3986 43.0471 -9.5049 15.6011 7.81988 -2.18275 -19.875 -19.492 -3.58545 2.51479 17.313 1.52609 7.06258 34.5556 1.07614 2.56317 -19.8782 23.3547 4.77083e-015 0 -3.18055e-015 -74.7793 -35.6724 -27.9538 -46.1017 25.5192 -56.8281 4.43813 8.58509 -35.0601 20.0481 5.11463 20.3575 69.8076 -23.5438 74.9793 45.7109 52.3094 69.0439 -14.0037 7.69198 14.7064 24.3717 -11.9987 -9.40992 -3.89867 36.4475 11.6901 -13.1386 12.7121 2.2419 -6.02018 -20.4155 -4.63803 
-16.2179 87.3359 -187.724 -11.5923 -14.0429 -31.0786 -16.6006 5.08642 7.30044 17.0959 40.7772 -11.0527 14.5348 6.3582 -1.86186 -18.1756 -18.0601 -3.76445 3.10393 17.8717 0.870103 8.86198 35.5473 -0.78921 3.44439 -18.9356 23.422 3.18055e-015 0 3.18055e-015 -74.1111 -31.5168 -29.4203 -47.6159 17.06 -52.4251 1.45246 9.6303 -36.472 19.6631 5.17458 20.9702 72.861 -22.6888 79.6 48.7229 51.6314 61.1821 -13.8633 7.27628 18.4274 23.7729 -13.8878 -9.51221 -2.6972 39.734 9.92632 -15.0316 16.6806 3.07777 -7.01236 -22.5373 -6.78449 
-16.1558 86.6846 -188.074 -11.9185 -15.0933 -30.2682 -15.8176 7.89739 9.28265 16.5059 38.7542 -12.3196 12.6284 3.47837 -1.32927 -16.0013 -16.232 -4.12367 3.63449 18.2042 0.354172 10.0764 36.1263 -2.11325 4.50956 -18.0836 23.1638 -4.77083e-015 9.54166e-015 -3.18055e-015 -72.2511 -26.6411 -30.1004 -47.1559 10.3424 -52.3687 -0.575045 10.3759 -36.7348 19.8649 5.38018 21.6825 76.2313 -21.4066 83.6794 51.4168 50.7166 53.8874 -13.3198 6.91348 22.5439 23.4073 -15.8072 -9.62429 -1.45248 42.5682 7.33561 -17.7902 21.7249 4.43004 -8.69339 -25.5865 -10.2766 
-16.027 86.0626 -188.203 -12.0783 -15.5889 -30.1684 -15.2201 9.78242 10.5665 15.5472 37.1533 -12.779 10.288 0.6782 -0.867958 -14.2653 -14.8047 -4.68907 4.00015 18.3269 0.0967087 10.6358 36.3549 -2.66653 5.36094 -17.7401 22.6787 4.77083e-015 0 -0 -70.9718 -25.518 -29.8725 -46.8887 9.74404 -52.7883 -1.31816 10.6518 -36.8532 20.3956 5.64174 22.3052 79.1732 -20.0348 86.3503 53.1347 49.8402 48.8685 -12.5035 6.70352 26.2617 23.4995 -17.6979 -9.79033 -0.631889 44.9032 4.4929 -21.3511 26.8806 6.31242 -10.5808 -28.1245 -14.5895 
-15.7055 85.5975 -188.123 -12.2517 -15.4629 -30.9963 -15.0415 10.4375 10.957 14.5029 36.0323 -12.1268 8.15669 -0.527179 -0.63423 -13.825 -14.5089 -5.35557 4.12727 18.3245 0.160016 10.6042 36.391 -2.41254 5.61009 -18.2552 22.0918 0 3.18055e-015 -0 -70.3499 -28.1701 -28.3246 -47.1916 14.8204 -53.3844 -1.24757 10.6293 -37.0378 20.7893 5.82829 22.7176 81.541 -19.2153 87.3411 54.1174 49.5058 46.7074 -11.7006 6.6645 28.7745 24.2095 -19.3606 -9.98935 -0.720025 46.8074 2.07381 -25.1688 30.9363 8.40173 -11.8192 -28.9723 -18.4797 
